<svg xmlns="http://www.w3.org/2000/svg" version="1.1" xmlns:xlink="http://www.w3.org/1999/xlink" width="200" height="200"><svg xmlns="http://www.w3.org/2000/svg" version="1.1" xmlns:xlink="http://www.w3.org/1999/xlink" viewBox="0 0 200 200"><rect width="200" height="200" fill="url('#gradient')"></rect><defs><linearGradient id="SvgjsLinearGradient1008" gradientTransform="rotate(45 0.5 0.5)"><stop offset="0%" stop-color="#b8cd8d"></stop><stop offset="100%" stop-color="#f9f3b1"></stop></linearGradient></defs><g><g fill="#14282e" transform="matrix(9.564835164835165,0,0,9.564835164835165,45.095660103677396,168.0053541655069)" stroke="#336664" stroke-width="0.4"><path d="M5.32 0L5.98-4.00L4.40-4.00L3.75 0L1.81 0L2.46-4.00L0.29-4.00L0.29-5.79L2.75-5.79L3.18-8.37L1.03-8.37L1.03-10.16L3.48-10.16L4.15-14.22L6.08-14.22L5.42-10.16L6.99-10.16L7.67-14.22L9.61-14.22L8.94-10.16L11.19-10.16L11.19-8.37L8.64-8.37L8.21-5.79L10.45-5.79L10.45-4.00L7.92-4.00L7.27 0L5.32 0ZM5.13-8.37L4.70-5.79L6.27-5.79L6.70-8.37L5.13-8.37Z"></path></g></g></svg><style>@media (prefers-color-scheme: light) { :root { filter: none; } }
@media (prefers-color-scheme: dark) { :root { filter: none; } }
</style></svg>